<?xml version="1.0" standalone="no"?>
<!DOCTYPE svg PUBLIC "-//W3C//DTD SVG 20010904//EN"
 "http://www.w3.org/TR/2001/REC-SVG-20010904/DTD/svg10.dtd">
<svg version="1.0" xmlns="http://www.w3.org/2000/svg"
 width="512.000000pt" height="512.000000pt" viewBox="0 0 512.000000 512.000000"
 preserveAspectRatio="xMidYMid meet">
<metadata>
Created by potrace 1.14, written by Peter Selinger 2001-2017
</metadata>
<g transform="translate(0.000000,512.000000) scale(0.100000,-0.100000)"
fill="#000000" stroke="none">
<path d="M831 5105 c-55 -17 -142 -76 -174 -118 -37 -49 -63 -106 -76 -165
-16 -75 -16 -2979 0 -3054 25 -117 103 -218 207 -266 l57 -27 613 -3 c572 -2
612 -4 612 -20 0 -9 -7 -55 -15 -102 -8 -47 -15 -86 -15 -87 0 -2 -447 -3
-993 -3 l-994 0 -21 -23 -22 -23 0 -585 0 -586 23 -21 23 -22 2516 0 c2424 0
2516 1 2531 18 15 17 17 60 17 419 0 434 2 417 -56 429 -21 4 -37 0 -57 -16
l-27 -21 0 -340 0 -339 -2410 0 -2410 0 0 480 0 480 2463 0 c2374 0 2465 1
2480 18 10 11 17 35 17 60 0 77 77 72 -1032 72 -544 0 -988 1 -988 3 0 1 -7
40 -15 87 -8 47 -15 93 -15 102 0 16 40 18 613 20 l612 3 57 27 c109 51 187
155 208 279 8 45 10 510 8 1554 l-3 1490 -23 57 c-43 106 -135 193 -236 223
-72 22 -3407 21 -3475 0z m3474 -170 c36 -22 57 -45 77 -84 l28 -54 -2 -1512
-3 -1512 -30 -48 c-22 -36 -45 -57 -84 -77 l-53 -28 -1667 0 -1667 0 -52 26
c-56 28 -92 68 -111 123 -8 25 -11 438 -11 1531 l0 1496 26 52 c27 55 64 87
123 108 29 11 358 13 1707 11 l1671 -2 48 -30z m-1395 -3477 c0 -2 7 -41 15
-88 8 -47 15 -91 15 -97 0 -10 -81 -13 -370 -13 -275 0 -370 3 -370 12 0 12
18 128 26 166 l4 22 340 0 c187 0 340 -1 340 -2z"/>
<path d="M1120 4667 c-19 -12 -43 -38 -54 -57 -21 -35 -21 -43 -21 -1200 l0
-1165 24 -38 c12 -21 40 -46 62 -57 37 -20 65 -20 1440 -20 l1401 0 40 22 c21
12 49 38 61 58 l22 35 0 1165 c0 1157 0 1165 -21 1200 -11 19 -35 45 -54 57
l-33 23 -932 0 c-890 0 -933 -1 -948 -18 -10 -10 -17 -26 -17 -35 0 -15 -12
-17 -80 -17 -64 0 -80 3 -80 15 0 34 -38 55 -100 55 -62 0 -100 -21 -100 -55
0 -12 -16 -15 -85 -15 -69 0 -85 3 -85 15 0 8 -9 24 -20 35 -19 19 -33 20
-204 20 -173 0 -185 -1 -216 -23z"/>
<path d="M529 851 c-24 -19 -24 -23 -27 -215 l-3 -196 25 -25 c25 -25 25 -25
219 -25 256 0 237 -19 237 239 0 258 17 241 -238 241 -172 0 -192 -2 -213 -19z"/>
<path d="M1383 858 c-12 -6 -27 -23 -34 -39 -15 -37 2 -82 37 -98 36 -16 3172
-16 3208 0 31 14 49 57 40 93 -15 60 98 56 -1639 55 -1092 0 -1597 -4 -1612
-11z"/>
<path d="M1390 538 c-51 -27 -61 -94 -18 -130 17 -15 42 -18 169 -18 136 0
151 2 169 20 30 30 30 83 -1 115 -17 18 -35 20 -157 23 -97 2 -144 -1 -162
-10z"/>
<path d="M2163 540 c-34 -14 -56 -54 -48 -90 13 -59 20 -60 345 -60 l297 0 21
23 c27 29 28 77 3 108 l-19 24 -289 2 c-158 1 -298 -2 -310 -7z"/>
<path d="M3224 536 c-51 -22 -60 -81 -19 -121 l24 -25 296 0 296 0 24 25 c41
40 26 106 -28 125 -47 16 -554 13 -593 -4z"/>
<path d="M4300 543 c-54 -21 -69 -92 -27 -131 22 -21 33 -22 169 -22 162 0
183 7 194 66 5 24 0 37 -19 60 l-25 29 -139 2 c-76 1 -145 0 -153 -4z"/>
</g>
</svg>
